<svg xmlns="http://www.w3.org/2000/svg" viewBox="0 0 64 64" role="img" aria-label="Games Hub">
  <defs>
    <linearGradient id="bg" x1="0" x2="1" y1="0" y2="1">
      <stop offset="0" stop-color="#6b8dff"/>
      <stop offset="1" stop-color="#9f6bff"/>
    </linearGradient>
  </defs>
  <rect width="64" height="64" rx="14" fill="url(#bg)"/>
  <path fill="#fff" d="M22 24h20a8 8 0 0 1 8 8v2a10 10 0 0 1-10 10h-4l-4-4-4 4h-4a10 10 0 0 1-10-10v-2a8 8 0 0 1 8-8zm2 11h4v-3h3v-4h-3v-3h-4v3h-3v4h3v3zm19-4.5a2.5 2.5 0 1 0 0-5 2.5 2.5 0 0 0 0 5zm-4 7a2.5 2.5 0 1 0 0-5 2.5 2.5 0 0 0 0 5z"/>
</svg>
